<?xml version="1.0" standalone="no"?>
<!DOCTYPE svg PUBLIC "-//W3C//DTD SVG 20010904//EN"
 "http://www.w3.org/TR/2001/REC-SVG-20010904/DTD/svg10.dtd">
<svg version="1.0" xmlns="http://www.w3.org/2000/svg"
 width="260.000000pt" height="260.000000pt" viewBox="0 0 260.000000 260.000000"
 preserveAspectRatio="xMidYMid meet">
<metadata>
Created by potrace 1.11, written by Peter Selinger 2001-2013
</metadata>
<g transform="translate(0.000000,260.000000) scale(0.100000,-0.100000)"
fill="#000000" stroke="none">
<path d="M0 1300 l0 -1300 1300 0 1300 0 0 1300 0 1300 -1300 0 -1300 0 0
-1300z m2133 950 c144 -54 247 -243 299 -550 39 -235 23 -589 -32 -716 -50
-116 -193 -132 -237 -26 -13 31 -14 59 -7 172 5 74 9 196 9 272 l0 136 -31 38
c-52 65 -118 63 -197 -6 -65 -57 -139 -214 -226 -477 -80 -244 -96 -278 -159
-345 -57 -61 -135 -102 -223 -117 -238 -41 -399 39 -522 259 -77 139 -221 377
-243 404 -52 61 -100 68 -145 20 -48 -51 -36 -166 42 -405 28 -85 42 -150 46
-206 6 -81 5 -82 -25 -112 -26 -26 -38 -31 -81 -31 -41 0 -56 5 -84 29 -30 27
-87 125 -87 151 0 5 -4 18 -9 28 -6 9 -19 46 -30 82 -116 366 -103 738 34 999
94 179 271 261 439 204 79 -28 190 -144 311 -328 120 -182 135 -201 192 -242
123 -88 262 -34 328 125 16 37 46 110 67 162 101 246 132 304 201 373 56 57
119 96 187 118 47 14 129 9 183 -11z"/>
</g>
</svg>
